<?xml version="1.0" standalone="no"?>
<!DOCTYPE svg PUBLIC "-//W3C//DTD SVG 20010904//EN"
 "http://www.w3.org/TR/2001/REC-SVG-20010904/DTD/svg10.dtd">
<svg version="1.0" xmlns="http://www.w3.org/2000/svg"
 width="1904.000000pt" height="1904.000000pt" viewBox="0 0 1904.000000 1904.000000"
 preserveAspectRatio="xMidYMid meet">
<metadata>
Created by potrace 1.11, written by Peter Selinger 2001-2013
</metadata>
<g transform="translate(0.000000,1904.000000) scale(0.100000,-0.100000)"
fill="#000000" stroke="none">
<path d="M9255 19004 c-925 -30 -1815 -185 -2675 -466 -2392 -781 -4382 -2494
-5506 -4741 -595 -1189 -926 -2448 -995 -3787 -13 -249 -7 -901 10 -1115 59
-732 175 -1376 362 -2010 399 -1349 1072 -2563 2008 -3620 148 -168 608 -628
776 -776 1537 -1360 3411 -2169 5455 -2354 544 -49 1218 -45 1780 11 1638 163
3228 765 4571 1731 1213 873 2220 2046 2896 3374 849 1668 1183 3519 972 5379
-315 2775 -1849 5274 -4184 6815 -1380 911 -2971 1442 -4630 1544 -176 11
-683 20 -840 15z m620 -744 c2001 -95 3850 -841 5365 -2166 294 -256 733 -715
997 -1041 2244 -2764 2573 -6629 830 -9733 -1292 -2300 -3549 -3885 -6154
-4319 -941 -157 -1906 -157 -2847 0 -2169 362 -4103 1518 -5452 3259 -954
1231 -1574 2744 -1753 4280 -71 604 -80 1253 -25 1835 170 1833 912 3555 2130
4945 254 290 665 688 979 950 722 601 1597 1109 2482 1441 1104 414 2297 604
3448 549z"/>
<path d="M12905 16999 c-1730 -915 -2789 -1522 -5120 -2936 -789 -479 -2332
-1466 -3845 -2463 -957 -630 -3030 -2025 -3030 -2040 0 -6 2524 -1871 2541
-1878 5 -2 82 50 171 116 497 364 850 609 1523 1061 314 210 625 419 691 465
l121 84 2126 -1566 c1169 -862 2126 -1573 2126 -1580 1 -7 -98 -338 -218 -735
-121 -397 -247 -819 -281 -937 -99 -346 -228 -765 -367 -1188 -10 -32 -13 -55
-7 -61 5 -5 596 -442 1313 -970 908 -669 1307 -958 1312 -949 13 25 515 1740
768 2623 577 2022 895 3211 1405 5270 361 1457 512 2116 816 3555 166 783 496
2469 488 2490 -2 4 -358 270 -793 591 -434 320 -960 707 -1167 860 -208 154
-383 279 -390 278 -7 0 -89 -41 -183 -90z m-565 -3541 c-50 -194 -168 -643
-261 -998 -94 -355 -194 -744 -224 -865 -127 -524 -276 -1070 -590 -2169 -124
-433 -225 -790 -225 -793 0 -13 -48 20 -292 200 -294 216 -1193 879 -2171
1601 -357 263 -647 479 -645 481 40 34 1519 1008 1783 1175 1108 698 2418
1535 2610 1668 55 38 101 65 103 61 2 -4 -38 -167 -88 -361z"/>
</g>
</svg>
